<?xml version="1.0" standalone="no"?>
<!DOCTYPE svg PUBLIC "-//W3C//DTD SVG 20010904//EN"
 "http://www.w3.org/TR/2001/REC-SVG-20010904/DTD/svg10.dtd">
<svg version="1.0" xmlns="http://www.w3.org/2000/svg"
 width="700.000000pt" height="700.000000pt" viewBox="0 0 700.000000 700.000000"
 preserveAspectRatio="xMidYMid meet">
<metadata>
Created by potrace 1.11, written by Peter Selinger 2001-2013
</metadata>
<g transform="translate(0.000000,700.000000) scale(0.100000,-0.100000)"
fill="#000000" stroke="none">
<path d="M3245 6994 c-508 -48 -874 -148 -1290 -353 -1004 -495 -1715 -1440
-1904 -2531 -42 -241 -46 -300 -46 -615 1 -337 9 -429 65 -705 224 -1100 979
-2035 2015 -2494 228 -102 461 -176 705 -226 278 -56 367 -64 710 -64 343 0
432 8 710 64 743 152 1431 554 1932 1130 396 456 670 1008 788 1590 56 276 64
368 65 705 0 315 -4 374 -46 615 -149 861 -631 1648 -1336 2181 -490 370
-1042 597 -1668 684 -104 15 -604 28 -700 19z m383 -1754 c401 -31 742 -163
1047 -406 151 -120 341 -335 380 -429 52 -123 -57 -256 -190 -231 -46 9 -84
42 -158 140 -215 282 -525 476 -894 558 -84 19 -129 22 -313 22 -184 0 -229
-3 -313 -22 -372 -83 -689 -282 -897 -563 -69 -92 -107 -126 -157 -135 -101
-19 -203 65 -203 166 0 46 23 92 87 178 217 289 546 522 898 635 169 54 307
78 560 96 11 0 80 -4 153 -9z m-321 -1247 c168 -55 264 -165 294 -337 28 -167
-18 -334 -122 -438 -104 -103 -226 -138 -496 -138 l-183 0 0 471 0 471 223 -4
c188 -4 231 -8 284 -25z m854 -240 c36 -18 75 -43 87 -56 l22 -23 -49 -48 -49
-48 -41 30 c-45 33 -143 55 -196 45 -61 -12 -85 -62 -47 -97 10 -9 67 -32 127
-51 195 -63 255 -111 263 -210 2 -29 -1 -69 -7 -88 -55 -167 -398 -186 -541
-31 -22 24 -40 47 -40 51 1 5 25 25 56 46 l55 38 29 -31 c41 -44 112 -72 185
-74 76 -1 115 20 115 64 0 39 -20 52 -173 104 -180 61 -237 111 -237 209 0
136 104 211 286 204 78 -2 100 -7 155 -34z m-2004 -934 c38 -14 65 -40 137
-134 215 -282 524 -475 893 -557 84 -19 129 -22 313 -22 184 0 229 3 313 22
214 47 415 135 583 255 105 74 250 217 319 314 79 111 136 144 220 129 43 -8
103 -59 121 -103 30 -70 12 -127 -74 -241 -466 -620 -1299 -877 -2063 -636
-352 111 -681 343 -901 636 -87 114 -103 169 -74 239 36 86 131 129 213 98z"/>
<path d="M2960 3550 l0 -322 129 3 c124 4 130 5 197 39 118 60 159 137 159
295 0 76 -4 99 -26 145 -29 62 -78 106 -149 135 -33 13 -80 20 -177 23 l-133
4 0 -322z"/>
</g>
</svg>
