<svg width="72" height="12" viewBox="0 0 72 12" fill="none" xmlns="http://www.w3.org/2000/svg">
<path fill-rule="evenodd" clip-rule="evenodd" d="M39.5147 2.82674C39.9259 2.82674 40.4069 3.04478 40.9733 3.48864C41.5396 3.93251 41.819 4.37638 41.819 4.82803V8.35561C41.819 8.79169 41.5241 9.24335 40.9267 9.695C40.3371 10.1467 39.8172 10.3725 39.3672 10.3725C38.9095 10.3725 38.3896 10.1467 37.8078 9.70279C37.2259 9.25113 36.931 8.80727 36.931 8.37119V0.256976C36.931 0.179104 36.9543 0.116807 37.0009 0.0700844C37.0474 0.0233614 37.1095 0 37.1871 0H37.769C37.8465 0 37.9086 0.0233614 37.9552 0.0700844C38.0172 0.116807 38.0405 0.179104 38.0405 0.256976V3.58988C38.2267 3.38741 38.4595 3.20831 38.7388 3.05256C39.0181 2.90461 39.2741 2.82674 39.5147 2.82674ZM40.7017 8.20766V4.99156C40.7017 4.75016 40.5388 4.49319 40.2207 4.23621C39.9026 3.97923 39.6155 3.84685 39.375 3.84685C39.1422 3.84685 38.8629 3.97923 38.5293 4.23621C38.1957 4.49319 38.0328 4.74237 38.0328 4.97599V8.20766C38.0328 8.44127 38.1879 8.69046 38.506 8.95522C38.8241 9.21999 39.1034 9.35237 39.3595 9.35237C39.6155 9.35237 39.8948 9.21999 40.2207 8.96301C40.5388 8.70603 40.7017 8.45685 40.7017 8.20766ZM23.5474 1.3316C22.8724 0.794286 22.2983 0.521736 21.825 0.521736C21.344 0.521736 20.7698 0.786499 20.1026 1.3316C19.4276 1.86891 19.094 2.38287 19.094 2.85788V9.9987C19.094 10.061 19.1172 10.1233 19.1716 10.1778C19.2259 10.2323 19.2879 10.2557 19.3655 10.2557H19.9784C20.0405 10.2557 20.1026 10.2323 20.1569 10.1856C20.2112 10.1389 20.2345 10.0766 20.2345 9.9987V6.72031H23.4078H23.431V9.9987C23.431 10.061 23.4543 10.1233 23.5086 10.1778C23.5552 10.2323 23.6172 10.2557 23.6871 10.2557H24.2845C24.3621 10.2557 24.4241 10.2323 24.4784 10.1778C24.5328 10.1311 24.556 10.0688 24.556 9.9987V2.85788C24.556 2.38287 24.2147 1.86891 23.5474 1.3316ZM23.4 5.71577H20.2267V3.00584C20.2267 2.7255 20.4284 2.41401 20.8086 2.08695C21.2043 1.75211 21.5379 1.58858 21.8095 1.58858C22.0965 1.58858 22.4302 1.75211 22.8181 2.08695C23.206 2.41401 23.4 2.7255 23.4 3.00584V5.71577ZM34.0526 3.49643C33.4862 3.05257 32.9897 2.83453 32.5629 2.83453C32.3069 2.83453 31.9966 2.94355 31.6474 3.16159C31.2983 3.37963 31.0035 3.62882 30.7707 3.90137C30.5379 3.62882 30.2431 3.37963 29.9017 3.16159C29.5604 2.94355 29.25 2.83453 28.9785 2.83453C28.5595 2.83453 28.0707 3.05257 27.5043 3.49643C26.9379 3.9403 26.6586 4.36859 26.6586 4.7891V9.99092C26.6586 10.17 26.744 10.2557 26.9224 10.2557H27.5043C27.5819 10.2557 27.644 10.2323 27.6905 10.1856C27.7371 10.1389 27.7604 10.0766 27.7604 9.9987V4.95263C27.7604 4.71902 27.9155 4.47761 28.2181 4.22843C28.5285 3.97924 28.7845 3.85464 28.9862 3.85464C29.1957 3.85464 29.4517 3.97924 29.7543 4.22843C30.0569 4.47761 30.2121 4.71902 30.2121 4.95263V9.9987C30.2121 10.0766 30.2354 10.1389 30.2974 10.1934C30.344 10.2401 30.406 10.2635 30.4836 10.2635H31.0655C31.244 10.2635 31.3293 10.1778 31.3293 9.9987V4.95263C31.3293 4.71902 31.4845 4.47761 31.7871 4.22843C32.0974 3.97924 32.3535 3.85464 32.5552 3.85464C32.7724 3.85464 33.0362 3.97924 33.3388 4.22843C33.6414 4.47761 33.7966 4.71902 33.7966 4.95263V9.99092C33.7966 10.17 33.8819 10.2557 34.0604 10.2557H34.6423C34.7043 10.2557 34.7664 10.2323 34.8207 10.1856C34.875 10.1389 34.8983 10.0766 34.8983 9.9987V4.7891C34.8983 4.36859 34.619 3.9403 34.0526 3.49643ZM46.7612 2.9669C46.5285 2.88903 46.2802 2.8501 46.0164 2.8501C45.5974 2.8501 45.1086 3.07593 44.5578 3.52758C44.0069 3.97923 43.7276 4.4231 43.7276 4.8514V9.9987C43.7276 10.0766 43.7509 10.1389 43.7974 10.1856C43.844 10.2323 43.9061 10.2557 43.9836 10.2557H44.5655C44.744 10.2557 44.8293 10.17 44.8293 9.99092V4.99935C44.8293 4.77352 44.9845 4.52434 45.2871 4.25957C45.5974 3.98702 45.8535 3.85464 46.0552 3.85464C46.1948 3.85464 46.3578 3.878 46.5517 3.91694C46.7457 3.94809 46.8543 3.88579 46.8854 3.73005L46.9552 3.29397C46.994 3.12265 46.9319 3.00584 46.7612 2.9669ZM51.075 2.94354C51.3776 3.05256 51.7034 3.23945 52.0526 3.50422C52.6422 3.95587 52.937 4.40753 52.937 4.86697V8.34783C52.937 8.78391 52.6422 9.23556 52.0448 9.695C51.6957 9.96755 51.3776 10.1544 51.0827 10.2635V11.782C51.0827 11.8443 51.0595 11.8988 51.0129 11.9377C50.9664 11.9766 50.9043 12 50.8267 12H50.2603C50.1827 12 50.1207 11.9766 50.0741 11.9377C50.0276 11.8988 50.0043 11.8443 50.0043 11.782V10.2946C49.6862 10.1934 49.3293 9.9987 48.9491 9.70279C48.3595 9.25114 48.0646 8.79948 48.0646 8.34783V4.85918C48.0646 4.41531 48.3595 3.96366 48.9491 3.51201C49.3293 3.22388 49.6784 3.02141 49.9965 2.92018V1.40169C49.9965 1.33939 50.0198 1.28488 50.0664 1.24594C50.1129 1.20701 50.175 1.18365 50.2526 1.18365H50.8189C50.8965 1.18365 50.9586 1.20701 51.0052 1.24594C51.0517 1.28488 51.075 1.33939 51.075 1.40169V2.94354ZM51.3465 8.96301C51.6646 8.70603 51.8276 8.44906 51.8276 8.19987V5.00714C51.8276 4.75016 51.6646 4.50097 51.3465 4.23621C51.0284 3.97923 50.7414 3.84685 50.5008 3.84685C50.2603 3.84685 49.9733 3.97923 49.6552 4.23621C49.3371 4.49319 49.1741 4.75016 49.1741 5.00714V8.19208C49.1741 8.44906 49.3293 8.69825 49.6474 8.96301C49.9655 9.21999 50.2448 9.35237 50.5008 9.35237C50.7414 9.35237 51.0284 9.21999 51.3465 8.96301ZM58.0888 6.44776L56.4129 5.817C55.9707 5.64568 55.7534 5.42764 55.7534 5.17846V4.85918C55.7534 4.6645 55.9086 4.45425 56.2267 4.21285C56.5448 3.97145 56.8008 3.85464 56.9948 3.85464C57.2043 3.85464 57.6853 4.01817 58.4612 4.35302C58.6629 4.46204 58.8103 4.4231 58.8957 4.23621L59.0431 3.83907C59.0819 3.76119 59.0896 3.68332 59.0586 3.61324C59.0276 3.53537 58.981 3.48864 58.9112 3.4575C58.0733 3.03699 57.437 2.82674 57.0026 2.82674C56.6146 2.82674 56.1258 3.04478 55.5517 3.48086C54.9698 3.91694 54.6827 4.32966 54.6827 4.71901V5.34977C54.6827 5.91045 55.0552 6.33874 55.7922 6.61908L57.3983 7.23426C57.631 7.3355 57.8017 7.43673 57.9258 7.54575C58.0422 7.65477 58.1043 7.79494 58.1043 7.95847V8.38676C58.1043 8.55808 57.9491 8.76833 57.6465 9.00195C57.3362 9.23556 57.0802 9.35237 56.8784 9.35237C56.6379 9.35237 56.1258 9.15769 55.35 8.76833C55.125 8.6671 54.9776 8.70604 54.9 8.88514L54.737 9.26671C54.6517 9.44581 54.706 9.59377 54.9 9.70279C55.7689 10.1467 56.4284 10.3725 56.8784 10.3725C57.3052 10.3725 57.8017 10.1544 58.3603 9.72615C58.9189 9.29786 59.1983 8.90071 59.1983 8.52693V7.81051C59.1983 7.19533 58.8258 6.74367 58.0888 6.44776ZM64.8078 2.94354H65.3897C65.4673 2.94354 65.5293 2.9669 65.5759 3.01363C65.6224 3.06035 65.6457 3.12265 65.6457 3.20052V8.33225C65.6457 8.79169 65.3509 9.24335 64.769 9.695C64.1871 10.1467 63.6673 10.3647 63.225 10.3647C62.7673 10.3647 62.2474 10.1389 61.6733 9.695C61.0914 9.24335 60.8043 8.79169 60.8043 8.33225V3.20831C60.8043 3.13043 60.8276 3.06814 60.8741 3.02141C60.9207 2.97469 60.9828 2.95133 61.0604 2.95133H61.6423C61.7198 2.95133 61.7819 2.97469 61.8285 3.02141C61.8983 3.06814 61.9216 3.13043 61.9216 3.20831V8.1843C61.9216 8.44906 62.0767 8.70603 62.3948 8.96301C62.7129 9.21999 62.9923 9.35237 63.2328 9.35237C63.4655 9.35237 63.7448 9.21999 64.0629 8.96301C64.381 8.70603 64.544 8.44127 64.544 8.1843V3.20831C64.544 3.0292 64.6293 2.94354 64.8078 2.94354ZM70.8905 6.44776L69.2147 5.817C68.7724 5.64568 68.5552 5.42764 68.5552 5.17846V4.85918C68.5552 4.6645 68.7104 4.45425 69.0285 4.21285C69.3466 3.97145 69.6026 3.85464 69.7966 3.85464C69.9983 3.85464 70.4871 4.01817 71.2629 4.35302C71.4647 4.46204 71.6121 4.4231 71.6974 4.23621L71.8448 3.83907C71.8836 3.76119 71.8914 3.68332 71.8604 3.61324C71.8293 3.53537 71.7828 3.48864 71.7129 3.4575C70.875 3.03699 70.2388 2.82674 69.8043 2.82674C69.4164 2.82674 68.9276 3.04478 68.3535 3.48086C67.7716 3.91694 67.4845 4.32966 67.4845 4.71901V5.34977C67.4845 5.91045 67.8569 6.33874 68.594 6.61908L70.2 7.23426C70.4328 7.3355 70.6035 7.43673 70.7276 7.54575C70.844 7.65477 70.9061 7.79494 70.9061 7.95847V8.38676C70.9061 8.55808 70.7509 8.76833 70.4483 9.00195C70.1379 9.23556 69.8819 9.35237 69.6802 9.35237C69.4397 9.35237 68.9276 9.15769 68.1517 8.76833C67.9267 8.6671 67.7793 8.70604 67.7017 8.88514L67.5388 9.26671C67.4535 9.44581 67.5078 9.59377 67.7017 9.70279C68.5707 10.1467 69.2302 10.3725 69.6802 10.3725C70.1069 10.3725 70.6035 10.1544 71.1621 9.72615C71.7207 9.29786 72 8.90071 72 8.52693V7.81051C72 7.19533 71.6276 6.74367 70.8905 6.44776ZM11.3741 6.63465C11.3897 6.53342 11.4828 6.45555 11.5836 6.47112C11.6845 6.4867 11.7621 6.58014 11.7466 6.68137C11.6457 7.54575 11.281 8.34782 10.6991 8.99416C10.6603 9.03309 10.606 9.04867 10.5595 9.04867C10.5129 9.04867 10.4664 9.03309 10.4353 9.00195C10.3578 8.93186 10.35 8.81505 10.4198 8.73718C10.9552 8.14536 11.281 7.42115 11.3741 6.63465ZM4.88017 3.3329C4.81035 3.26282 4.68621 3.26282 4.61638 3.34069C4.02673 3.96366 3.65431 4.74237 3.53017 5.58339C3.52242 5.69241 3.59224 5.78585 3.69311 5.80143H3.72414C3.81724 5.80143 3.89483 5.73134 3.90259 5.6379C4.01121 4.86697 4.35259 4.16613 4.88793 3.59766C4.95776 3.52758 4.95776 3.40299 4.88017 3.3329ZM4.29051 6.19857C4.29051 4.34523 5.79568 2.84231 7.63448 2.84231C9.48103 2.84231 10.9784 4.35302 10.9784 6.19857C10.9784 8.05191 9.48103 9.55483 7.63448 9.55483C5.78793 9.55483 4.29051 8.04413 4.29051 6.19857ZM4.66293 6.19857C4.66293 7.84166 5.99741 9.18105 7.63448 9.18105C9.27155 9.18105 10.606 7.84166 10.606 6.19857C10.5983 4.55548 9.27155 3.21609 7.63448 3.21609C5.99741 3.21609 4.66293 4.55548 4.66293 6.19857ZM8.72845 5.2719C8.72845 4.68008 8.24741 4.19727 7.65776 4.19727C7.0681 4.19727 6.58707 4.68008 6.58707 5.2719C6.58707 5.64568 6.77327 5.97274 7.0681 6.16742L6.77327 7.97404C6.75 8.11421 6.85086 8.23102 6.99051 8.23102H8.325C8.47241 8.23102 8.56551 8.11421 8.54224 7.97404L8.24741 6.16742C8.53448 5.97274 8.72845 5.64568 8.72845 5.2719ZM0.0698276 5.96495C0.372414 5.451 2.71552 1.72874 7.63448 1.72874C12.5302 1.72874 14.881 5.41985 15.1991 5.94938C15.2534 6.01168 15.2767 6.08955 15.2767 6.17521C15.2767 6.26087 15.2457 6.33874 15.1991 6.40103C14.881 6.93835 12.5379 10.6372 7.63448 10.6372C2.74655 10.6372 0.39569 6.94614 0.0775862 6.40882C0.0232759 6.34653 0 6.26865 0 6.18299C0 6.10512 0.0232759 6.02725 0.0698276 5.96495ZM10.0784 9.55483C10.0707 9.56067 10.0629 9.56651 10.0552 9.57041C12.6698 8.75275 14.1129 6.78261 14.5009 6.17521C14.1052 5.56781 12.631 3.56651 9.96983 2.76444C10.8078 3.34847 11.4207 4.22063 11.6612 5.24854C11.8474 5.28747 11.9871 5.451 11.9871 5.65347C11.9871 5.8793 11.8009 6.06619 11.5759 6.06619C11.3509 6.06619 11.1647 5.8793 11.1647 5.65347C11.1647 5.52887 11.2112 5.42764 11.2966 5.34977C10.9552 3.82349 9.69052 2.64763 8.12328 2.44516H8.11552C7.96035 2.43738 7.79741 2.42959 7.63448 2.42959C7.46379 2.42959 7.2931 2.43738 7.13017 2.44516C6.525 2.52303 5.9431 2.75665 5.44655 3.11486C5.41552 3.13822 5.37672 3.14601 5.33793 3.14601C5.27586 3.14601 5.22155 3.11486 5.18276 3.06813C5.12069 2.98248 5.14397 2.86567 5.22931 2.80337C5.23707 2.79948 5.24289 2.79558 5.24871 2.79169C5.25453 2.7878 5.26035 2.7839 5.2681 2.78001C2.62241 3.58987 1.16379 5.58338 0.768103 6.18299C1.16379 6.78261 2.6069 8.75276 5.20603 9.57819C4.3681 8.97079 3.77069 8.0597 3.56897 7.00065C3.41379 6.93835 3.29741 6.79039 3.29741 6.61129C3.29741 6.38546 3.48362 6.19857 3.70862 6.19857C3.93362 6.19857 4.11983 6.38546 4.11983 6.61129C4.11983 6.75146 4.05 6.86826 3.94138 6.94614C4.24397 8.44127 5.4 9.60934 6.89741 9.90525L6.89745 9.90526C7.13796 9.92083 7.37846 9.9364 7.63448 9.9364C7.89052 9.9364 8.13103 9.92861 8.37155 9.90525C8.91466 9.79623 9.42672 9.57041 9.87673 9.23556C9.96207 9.17326 10.0784 9.18883 10.1405 9.27449C10.2026 9.36015 10.1871 9.47696 10.1017 9.53926C10.094 9.54315 10.0862 9.54899 10.0784 9.55483Z" fill="url(#paint0_linear)"/>
<defs>
<linearGradient id="paint0_linear" x1="0" y1="6" x2="72" y2="6" gradientUnits="userSpaceOnUse">
<stop stop-color="#122283"/>
<stop offset="1" stop-color="#4F299B"/>
</linearGradient>
</defs>
</svg>
