<svg width="80" height="80" viewBox="0 0 80 80" fill="none" xmlns="http://www.w3.org/2000/svg">
<path d="M40 80C62.0914 80 80 62.0914 80 40C80 17.9086 62.0914 0 40 0C17.9086 0 0 17.9086 0 40C0 62.0914 17.9086 80 40 80Z" fill="url(#paint0_linear)"/>
<path fill-rule="evenodd" clip-rule="evenodd" d="M64.8875 39.2727C65.0662 39.4805 65.1428 39.7403 65.1428 40.026C65.1428 40.2857 65.0662 40.5455 64.8875 40.7273C63.8404 42.5195 56.1277 54.8571 39.9872 54.8571C23.8978 54.8571 16.1596 42.5455 15.1125 40.7532C14.9338 40.5455 14.8571 40.2857 14.8571 40C14.8571 39.7403 14.9338 39.4805 15.087 39.2727C16.083 37.5584 23.7957 25.1429 39.9872 25.1429C56.1021 25.1429 63.8404 37.4545 64.8875 39.2727ZM48.0319 51.2468C48.0064 51.2662 47.9808 51.2857 47.9553 51.2987C56.5618 48.5714 61.312 42 62.589 39.974C61.2865 37.948 56.4341 31.2727 47.6744 28.5974C50.4325 30.5455 52.4501 33.4545 53.2418 36.8831C53.8547 37.013 54.3144 37.5584 54.3144 38.2338C54.3144 38.987 53.7015 39.6104 52.9609 39.6104C52.2203 39.6104 51.6073 38.987 51.6073 38.2338C51.6073 37.8182 51.7606 37.4805 52.0415 37.2208C50.9178 32.1299 46.755 28.2078 41.5962 27.5325H41.5706C41.0598 27.5065 40.5235 27.4805 39.9872 27.4805C39.4254 27.4805 38.8635 27.5065 38.3272 27.5325C36.3352 27.7922 34.4198 28.5714 32.7853 29.7662C32.6832 29.8442 32.5555 29.8701 32.4278 29.8701C32.2235 29.8701 32.0447 29.7662 31.917 29.6104C31.7127 29.3247 31.7893 28.9351 32.0702 28.7273C32.0958 28.7143 32.1149 28.7013 32.1341 28.6883C32.1532 28.6753 32.1724 28.6623 32.1979 28.6493C23.4892 31.3506 18.6879 38 17.3855 40C18.6879 42 23.4381 48.5714 31.9936 51.3247C29.2354 49.2987 27.2689 46.2597 26.6049 42.7273C26.0942 42.5195 25.7111 42.026 25.7111 41.4286C25.7111 40.6753 26.324 40.0519 27.0646 40.0519C27.8053 40.0519 28.4182 40.6753 28.4182 41.4286C28.4182 41.8961 28.1883 42.2857 27.8308 42.5455C28.8268 47.5325 32.6321 51.4286 37.561 52.4156C38.3527 52.4675 39.1444 52.5195 39.9872 52.5195C40.83 52.5195 41.6217 52.4935 42.4134 52.4156C44.2011 52.0519 45.8867 51.2987 47.3679 50.1818C47.6488 49.974 48.0319 50.026 48.2362 50.3117C48.4405 50.5974 48.3895 50.987 48.1085 51.1948C48.083 51.2078 48.0575 51.2273 48.0319 51.2468ZM28.98 40.0519C28.98 33.8701 33.9346 28.8571 39.9872 28.8571C46.0654 28.8571 50.9944 33.8961 50.9944 40.0519C50.9944 46.2338 46.0654 51.2467 39.9872 51.2467C33.909 51.2467 28.98 46.2078 28.98 40.0519ZM30.2059 40.0519C30.2059 45.5325 34.5986 50 39.9872 50C45.3759 50 49.7686 45.5325 49.7686 40.0519C49.743 34.5714 45.3759 30.1039 39.9872 30.1039C34.5986 30.1039 30.2059 34.5714 30.2059 40.0519ZM30.921 30.4935C30.6911 30.2597 30.2825 30.2597 30.0527 30.5195C28.1117 32.5974 26.8859 35.1948 26.4772 38C26.4517 38.3636 26.6816 38.6753 27.0136 38.7273H27.1157C27.4222 38.7273 27.6776 38.4935 27.7031 38.1818C28.0606 35.6104 29.1843 33.2727 30.9465 31.3766C31.1764 31.1429 31.1764 30.7273 30.921 30.4935ZM52.9864 40.961C52.6544 40.9091 52.3479 41.1688 52.2969 41.5065C51.9904 44.1299 50.9178 46.5455 49.1556 48.5195C48.9258 48.7792 48.9513 49.1688 49.2067 49.4026C49.3088 49.5065 49.4621 49.5584 49.6153 49.5584C49.7685 49.5584 49.9473 49.5065 50.075 49.3766C51.9904 47.2208 53.1907 44.5455 53.5227 41.6623C53.5738 41.3247 53.3184 41.013 52.9864 40.961ZM43.5882 36.961C43.5882 34.987 42.0048 33.3766 40.0639 33.3766C38.1229 33.3766 36.5395 34.987 36.5395 36.961C36.5395 38.2078 37.1524 39.2987 38.1229 39.948L37.1524 45.974C37.0758 46.4416 37.4078 46.8312 37.8675 46.8312H42.2602C42.7454 46.8312 43.0519 46.4416 42.9753 45.974L42.0048 39.948C42.9497 39.2987 43.5882 38.2078 43.5882 36.961Z" fill="white"/>
<defs>
<linearGradient id="paint0_linear" x1="0" y1="40" x2="80" y2="40" gradientUnits="userSpaceOnUse">
<stop stop-color="#00B7F9"/>
<stop offset="0.480663" stop-color="#0042BA"/>
<stop offset="1" stop-color="#5B1EC0"/>
</linearGradient>
</defs>
</svg>
