<svg width="40" height="40" viewBox="0 0 40 40" fill="none" xmlns="http://www.w3.org/2000/svg">
<path d="M20 4.5294L20.4737 3.64869C20.1779 3.48964 19.8221 3.48964 19.5263 3.64869L20 4.5294ZM34 12.0588H35C35 11.6908 34.7978 11.3524 34.4737 11.1781L34 12.0588ZM34 29L34.4737 29.8807C34.7978 29.7064 35 29.3681 35 29H34ZM20 36.5294L19.5263 37.4101C19.8221 37.5692 20.1779 37.5692 20.4737 37.4101L20 36.5294ZM6 29H5C5 29.3681 5.20219 29.7064 5.52634 29.8807L6 29ZM6 12.0588L5.52634 11.1781C5.20219 11.3524 5 11.6908 5 12.0588H6ZM19 26C19 26.5523 19.4477 27 20 27C20.5523 27 21 26.5523 21 26H19ZM14.4737 15.1193C13.9873 14.8577 13.3809 15.0399 13.1193 15.5263C12.8577 16.0127 13.0399 16.6191 13.5263 16.8807L14.4737 15.1193ZM26.4737 16.8807C26.9601 16.6191 27.1423 16.0127 26.8807 15.5263C26.6191 15.0399 26.0127 14.8577 25.5263 15.1193L26.4737 16.8807ZM19.5263 5.41011L33.5263 12.9395L34.4737 11.1781L20.4737 3.64869L19.5263 5.41011ZM33 12.0588V29H35V12.0588H33ZM33.5263 28.1193L19.5263 35.6487L20.4737 37.4101L34.4737 29.8807L33.5263 28.1193ZM20.4737 35.6487L6.47366 28.1193L5.52634 29.8807L19.5263 37.4101L20.4737 35.6487ZM7 29V12.0588H5V29H7ZM6.47366 12.9395L20.4737 5.41011L19.5263 3.64869L5.52634 11.1781L6.47366 12.9395ZM19 19.2269V26H21V19.2269H19ZM20.4737 18.3462L14.4737 15.1193L13.5263 16.8807L19.5263 20.1076L20.4737 18.3462ZM25.5263 15.1193L19.5263 18.3462L20.4737 20.1076L26.4737 16.8807L25.5263 15.1193Z"/>
</svg>
