<svg width="40" height="40" viewBox="0 0 40 40" fill="none" xmlns="http://www.w3.org/2000/svg">
<path d="M35 16C35 16.5523 35.4477 17 36 17C36.5523 17 37 16.5523 37 16H35ZM37 24C37 23.4477 36.5523 23 36 23C35.4477 23 35 23.4477 35 24H37ZM3 16C3 16.5523 3.44772 17 4 17C4.55228 17 5 16.5523 5 16H3ZM5 24C5 23.4477 4.55228 23 4 23C3.44772 23 3 23.4477 3 24H5ZM19 10C19 10.5523 19.4477 11 20 11C20.5523 11 21 10.5523 21 10H19ZM21 4.5C21 3.94772 20.5523 3.5 20 3.5C19.4477 3.5 19 3.94772 19 4.5H21ZM19 35.5C19 36.0523 19.4477 36.5 20 36.5C20.5523 36.5 21 36.0523 21 35.5H19ZM21 30C21 29.4477 20.5523 29 20 29C19.4477 29 19 29.4477 19 30H21ZM10 15C9.44772 15 9 15.4477 9 16C9 16.5523 9.44772 17 10 17V15ZM30 17C30.5523 17 31 16.5523 31 16C31 15.4477 30.5523 15 30 15V17ZM10 19C9.44772 19 9 19.4477 9 20C9 20.5523 9.44772 21 10 21V19ZM30 21C30.5523 21 31 20.5523 31 20C31 19.4477 30.5523 19 30 19V21ZM10 23C9.44772 23 9 23.4477 9 24C9 24.5523 9.44772 25 10 25V23ZM30 25C30.5523 25 31 24.5523 31 24C31 23.4477 30.5523 23 30 23V25ZM6 11H34V9H6V11ZM34 29H6V31H34V29ZM6 29C5.44772 29 5 28.5523 5 28H3C3 29.6569 4.34315 31 6 31V29ZM35 28C35 28.5523 34.5523 29 34 29V31C35.6569 31 37 29.6569 37 28H35ZM34 11C34.5523 11 35 11.4477 35 12H37C37 10.3431 35.6569 9 34 9V11ZM6 9C4.34315 9 3 10.3431 3 12H5C5 11.4477 5.44772 11 6 11V9ZM35 12V16H37V12H35ZM35 24V28H37V24H35ZM5 16V12H3V16H5ZM5 28V24H3V28H5ZM21 10V4.5H19V10H21ZM21 35.5V30H19V35.5H21ZM10 21H30V19H10V21ZM10 25H30V23H10V25ZM10 17H12V15H10V17ZM12 17H30V15H12V17Z"/>
</svg>
