<svg width="40" height="40" viewBox="0 0 40 40" fill="none" xmlns="http://www.w3.org/2000/svg">
<path d="M28.4853 6L29.1924 5.29289C28.8019 4.90237 28.1687 4.90237 27.7782 5.29289L28.4853 6ZM32.7279 10.2426L33.435 10.9497C33.6226 10.7622 33.7279 10.5079 33.7279 10.2426C33.7279 9.97742 33.6226 9.72307 33.435 9.53553L32.7279 10.2426ZM15.7574 27.2132L16.0736 28.1619C16.2209 28.1128 16.3547 28.0301 16.4645 27.9203L15.7574 27.2132ZM11.5147 22.9706L10.8076 22.2635C10.6978 22.3732 10.6151 22.5071 10.566 22.6543L11.5147 22.9706ZM9.39341 29.3345L8.44472 29.0183C8.32495 29.3776 8.41847 29.7738 8.6863 30.0416C8.95413 30.3095 9.3503 30.403 9.70964 30.2832L9.39341 29.3345ZM25.6569 8.82843C25.2663 8.4379 24.6332 8.4379 24.2426 8.82843C23.8521 9.21895 23.8521 9.85212 24.2426 10.2426L25.6569 8.82843ZM28.4853 14.4853C28.8758 14.8758 29.509 14.8758 29.8995 14.4853C30.29 14.0948 30.29 13.4616 29.8995 13.0711L28.4853 14.4853ZM6 33C5.44772 33 5 33.4477 5 34C5 34.5523 5.44772 35 6 35V33ZM34 35C34.5523 35 35 34.5523 35 34C35 33.4477 34.5523 33 34 33V35ZM27.7782 6.70711L32.0208 10.9497L33.435 9.53553L29.1924 5.29289L27.7782 6.70711ZM32.0208 9.53553L15.0503 26.5061L16.4645 27.9203L33.435 10.9497L32.0208 9.53553ZM12.2218 23.6777L29.1924 6.70711L27.7782 5.29289L10.8076 22.2635L12.2218 23.6777ZM15.4411 26.2645L9.07718 28.3858L9.70964 30.2832L16.0736 28.1619L15.4411 26.2645ZM10.3421 29.6508L12.4634 23.2868L10.566 22.6543L8.44472 29.0183L10.3421 29.6508ZM24.2426 10.2426L28.4853 14.4853L29.8995 13.0711L25.6569 8.82843L24.2426 10.2426ZM12.2218 23.6777C13.0029 22.8966 14.2692 22.8966 15.0503 23.6777L16.4645 22.2635C14.9024 20.7014 12.3697 20.7014 10.8076 22.2635L12.2218 23.6777ZM15.0503 23.6777C15.8313 24.4587 15.8313 25.725 15.0503 26.5061L16.4645 27.9203C18.0266 26.3582 18.0266 23.8256 16.4645 22.2635L15.0503 23.6777ZM6 35H34V33H6V35Z" fill="#0042BA"/>
</svg>
