<svg width="40" height="40" viewBox="0 0 40 40" fill="none" xmlns="http://www.w3.org/2000/svg">
<path d="M21 29V23H19V29H21ZM12 30H28V28H12V30ZM28 34H12V36H28V34ZM12 34C10.8954 34 10 33.1046 10 32H8C8 34.2091 9.79086 36 12 36V34ZM30 32C30 33.1046 29.1046 34 28 34V36C30.2091 36 32 34.2091 32 32H30ZM28 30C29.1046 30 30 30.8954 30 32H32C32 29.7909 30.2091 28 28 28V30ZM12 28C9.79086 28 8 29.7909 8 32H10C10 30.8954 10.8954 30 12 30V28ZM12 18H28V16H12V18ZM28 22H12V24H28V22ZM12 22C10.8954 22 10 21.1046 10 20H8C8 22.2091 9.79086 24 12 24V22ZM30 20C30 21.1046 29.1046 22 28 22V24C30.2091 24 32 22.2091 32 20H30ZM28 18C29.1046 18 30 18.8954 30 20H32C32 17.7909 30.2091 16 28 16V18ZM12 16C9.79086 16 8 17.7909 8 20H10C10 18.8954 10.8954 18 12 18V16Z" fill="#9198BB"/>
<path d="M9 8C9 6.34315 10.3431 5 12 5H28C29.6569 5 31 6.34315 31 8V8C31 9.65685 29.6569 11 28 11H12C10.3431 11 9 9.65685 9 8V8Z" stroke="#9198BB" stroke-width="2" stroke-dasharray="2 2"/>
</svg>
