<svg width="34" height="14" viewBox="0 0 34 14" fill="none" xmlns="http://www.w3.org/2000/svg">
<path d="M33.8137 1.58124C34.1347 1.13183 34.0307 0.507276 33.5812 0.186267C33.1318 -0.134742 32.5073 -0.0306507 32.1863 0.418762L33.8137 1.58124ZM1.81373 0.418762C1.49272 -0.0306507 0.868174 -0.134742 0.418762 0.186267C-0.0306507 0.507276 -0.134742 1.13183 0.186267 1.58124L1.81373 0.418762ZM16 13C16 13.5523 16.4477 14 17 14C17.5523 14 18 13.5523 18 13H16ZM22.8 7.4C22.4686 6.95817 21.8418 6.86863 21.4 7.2C20.9582 7.53137 20.8686 8.15817 21.2 8.6L22.8 7.4ZM24.2 12.6C24.5314 13.0418 25.1582 13.1314 25.6 12.8C26.0418 12.4686 26.1314 11.8418 25.8 11.4L24.2 12.6ZM12.8944 8.4472C13.1414 7.95322 12.9412 7.35255 12.4472 7.10557C11.9532 6.85858 11.3525 7.05882 11.1056 7.5528L12.8944 8.4472ZM9.10564 11.5528C8.85865 12.0468 9.05889 12.6475 9.55287 12.8944C10.0468 13.1414 10.6475 12.9412 10.8945 12.4472L9.10564 11.5528ZM27.6 5.2C27.1582 4.86863 26.5314 4.95817 26.2 5.4C25.8686 5.84183 25.9582 6.46863 26.4 6.8L27.6 5.2ZM30.4 9.8C30.8418 10.1314 31.4686 10.0418 31.8 9.6C32.1314 9.15817 32.0418 8.53137 31.6 8.2L30.4 9.8ZM7.6 6.8C8.04183 6.46863 8.13137 5.84183 7.8 5.4C7.46863 4.95817 6.84183 4.86863 6.4 5.2L7.6 6.8ZM2.4 8.2C1.95817 8.53137 1.86863 9.15817 2.2 9.6C2.53137 10.0418 3.15817 10.1314 3.6 9.8L2.4 8.2ZM33 1C32.1863 0.418762 32.1865 0.418375 32.1868 0.418014C32.1869 0.417929 32.1871 0.417595 32.1872 0.417425C32.1875 0.417084 32.1876 0.416849 32.1877 0.416718C32.1879 0.416456 32.1878 0.41661 32.1874 0.417175C32.1866 0.418304 32.1846 0.421073 32.1813 0.425429C32.1749 0.434143 32.1636 0.4492 32.1476 0.470182C32.1154 0.512152 32.0639 0.577776 31.9929 0.663697C31.8508 0.835597 31.6309 1.08835 31.3313 1.39521C30.7318 2.00933 29.8162 2.83737 28.5703 3.66795C26.0847 5.32503 22.2747 7 17 7V9C22.7253 9 26.9153 7.17497 29.6797 5.33205C31.0588 4.41263 32.0807 3.49067 32.7624 2.79229C33.1035 2.4429 33.3601 2.14878 33.5345 1.93787C33.6217 1.83238 33.6883 1.74761 33.7348 1.68704C33.758 1.65676 33.7762 1.63251 33.7893 1.61473C33.7959 1.60584 33.8012 1.59857 33.8053 1.59297C33.8073 1.59017 33.809 1.58779 33.8104 1.58583C33.8111 1.58485 33.8118 1.58398 33.8123 1.58321C33.8126 1.58283 33.8129 1.58234 33.8131 1.58215C33.8134 1.58168 33.8137 1.58124 33 1ZM17 7C11.7253 7 7.91532 5.32503 5.4297 3.66795C4.18383 2.83737 3.2682 2.00933 2.6687 1.39521C2.36914 1.08835 2.1492 0.835597 2.00712 0.663697C1.93611 0.577776 1.88462 0.512152 1.85244 0.470182C1.83636 0.4492 1.82511 0.434143 1.81866 0.425429C1.81544 0.421073 1.81342 0.418304 1.8126 0.417175C1.81219 0.41661 1.81208 0.416456 1.81227 0.416718C1.81236 0.416849 1.81253 0.417084 1.81278 0.417425C1.8129 0.417595 1.81314 0.417929 1.8132 0.418014C1.81346 0.418375 1.81373 0.418762 1 1C0.186267 1.58124 0.186581 1.58168 0.186916 1.58215C0.187053 1.58234 0.187407 1.58283 0.187681 1.58321C0.188231 1.58398 0.188858 1.58485 0.189563 1.58583C0.190974 1.58779 0.192697 1.59017 0.194732 1.59297C0.198801 1.59857 0.204121 1.60584 0.210695 1.61473C0.223843 1.63251 0.242011 1.65676 0.265232 1.68704C0.311668 1.74761 0.378348 1.83238 0.465534 1.93787C0.63986 2.14878 0.896487 2.4429 1.23755 2.79229C1.9193 3.49067 2.94117 4.41263 4.3203 5.33205C7.08468 7.17497 11.2747 9 17 9V7ZM16 8V13H18V8H16ZM21.2 8.6L24.2 12.6L25.8 11.4L22.8 7.4L21.2 8.6ZM11.1056 7.5528L9.10564 11.5528L10.8945 12.4472L12.8944 8.4472L11.1056 7.5528ZM26.4 6.8L30.4 9.8L31.6 8.2L27.6 5.2L26.4 6.8ZM6.4 5.2L2.4 8.2L3.6 9.8L7.6 6.8L6.4 5.2Z"/>
</svg>