<svg width="40" height="40" viewBox="0 0 40 40" fill="none" xmlns="http://www.w3.org/2000/svg">
<path d="M35 16C35 16.5523 35.4477 17 36 17C36.5523 17 37 16.5523 37 16H35ZM37 24C37 23.4477 36.5523 23 36 23C35.4477 23 35 23.4477 35 24H37ZM3 16C3 16.5523 3.44772 17 4 17C4.55228 17 5 16.5523 5 16H3ZM5 24C5 23.4477 4.55228 23 4 23C3.44772 23 3 23.4477 3 24H5ZM13 15C13 14.4477 12.5523 14 12 14C11.4477 14 11 14.4477 11 15H13ZM11 25C11 25.5523 11.4477 26 12 26C12.5523 26 13 25.5523 13 25H11ZM21 15C21 14.4477 20.5523 14 20 14C19.4477 14 19 14.4477 19 15H21ZM19 23C19 23.5523 19.4477 24 20 24C20.5523 24 21 23.5523 21 23H19ZM17 15C17 14.4477 16.5523 14 16 14C15.4477 14 15 14.4477 15 15H17ZM15 22C15 22.5523 15.4477 23 16 23C16.5523 23 17 22.5523 17 22H15ZM25 15C25 14.4477 24.5523 14 24 14C23.4477 14 23 14.4477 23 15H25ZM23 22C23 22.5523 23.4477 23 24 23C24.5523 23 25 22.5523 25 22H23ZM29 15C29 14.4477 28.5523 14 28 14C27.4477 14 27 14.4477 27 15H29ZM27 25C27 25.5523 27.4477 26 28 26C28.5523 26 29 25.5523 29 25H27ZM6 11H34V9H6V11ZM34 29H6V31H34V29ZM6 29C5.44772 29 5 28.5523 5 28H3C3 29.6569 4.34315 31 6 31V29ZM35 28C35 28.5523 34.5523 29 34 29V31C35.6569 31 37 29.6569 37 28H35ZM34 11C34.5523 11 35 11.4477 35 12H37C37 10.3431 35.6569 9 34 9V11ZM6 9C4.34315 9 3 10.3431 3 12H5C5 11.4477 5.44772 11 6 11V9ZM35 12V16H37V12H35ZM35 24V28H37V24H35ZM5 16V12H3V16H5ZM5 28V24H3V28H5ZM11 15V25H13V15H11ZM19 15V23H21V15H19ZM15 15V22H17V15H15ZM23 15V22H25V15H23ZM27 15V25H29V15H27Z" fill="#9198BB"/>
</svg>
