<svg width="40" height="40" viewBox="0 0 40 40" fill="none" xmlns="http://www.w3.org/2000/svg">
<path d="M35 16C35 16.5523 35.4477 17 36 17C36.5523 17 37 16.5523 37 16H35ZM37 24C37 23.4477 36.5523 23 36 23C35.4477 23 35 23.4477 35 24H37ZM3 16C3 16.5523 3.44772 17 4 17C4.55228 17 5 16.5523 5 16H3ZM5 24C5 23.4477 4.55228 23 4 23C3.44772 23 3 23.4477 3 24H5ZM20 17L20.4813 16.1234C20.1815 15.9589 19.8185 15.9589 19.5187 16.1234L20 17ZM23 18.6471H24C24 18.2821 23.8012 17.9461 23.4813 17.7705L23 18.6471ZM23 22.3529L23.4813 23.2295C23.8012 23.0539 24 22.7179 24 22.3529H23ZM20 24L19.5187 24.8766C19.8185 25.0411 20.1815 25.0411 20.4813 24.8766L20 24ZM17 22.3529H16C16 22.7179 16.1988 23.0539 16.5187 23.2295L17 22.3529ZM17 18.6471L16.5187 17.7705C16.1988 17.9461 16 18.2821 16 18.6471H17ZM8 19C7.44772 19 7 19.4477 7 20C7 20.5523 7.44772 21 8 21V19ZM12 21C12.5523 21 13 20.5523 13 20C13 19.4477 12.5523 19 12 19V21ZM8 14C7.44772 14 7 14.4477 7 15C7 15.5523 7.44772 16 8 16V14ZM12 16C12.5523 16 13 15.5523 13 15C13 14.4477 12.5523 14 12 14V16ZM8 24C7.44772 24 7 24.4477 7 25C7 25.5523 7.44772 26 8 26V24ZM12 26C12.5523 26 13 25.5523 13 25C13 24.4477 12.5523 24 12 24V26ZM28 19C27.4477 19 27 19.4477 27 20C27 20.5523 27.4477 21 28 21V19ZM32 21C32.5523 21 33 20.5523 33 20C33 19.4477 32.5523 19 32 19V21ZM28 14C27.4477 14 27 14.4477 27 15C27 15.5523 27.4477 16 28 16V14ZM32 16C32.5523 16 33 15.5523 33 15C33 14.4477 32.5523 14 32 14V16ZM28 24C27.4477 24 27 24.4477 27 25C27 25.5523 27.4477 26 28 26V24ZM32 26C32.5523 26 33 25.5523 33 25C33 24.4477 32.5523 24 32 24V26ZM6 29C5.44772 29 5 28.5523 5 28H3C3 29.6569 4.34315 31 6 31V29ZM35 28C35 28.5523 34.5523 29 34 29V31C35.6569 31 37 29.6569 37 28H35ZM34 11C34.5523 11 35 11.4477 35 12H37C37 10.3431 35.6569 9 34 9V11ZM6 9C4.34315 9 3 10.3431 3 12H5C5 11.4477 5.44772 11 6 11V9ZM35 12V16H37V12H35ZM35 24V28H37V24H35ZM5 16V12H3V16H5ZM5 28V24H3V28H5ZM28 11H34V9H28V11ZM6 11H12V9H6V11ZM34 29H28V31H34V29ZM12 29H6V31H12V29ZM14 9H26V7H14V9ZM27 10V30H29V10H27ZM26 31H14V33H26V31ZM13 30V10H11V30H13ZM14 31C13.4477 31 13 30.5523 13 30H11C11 31.6569 12.3431 33 14 33V31ZM27 30C27 30.5523 26.5523 31 26 31V33C27.6569 33 29 31.6569 29 30H27ZM26 9C26.5523 9 27 9.44772 27 10H29C29 8.34315 27.6569 7 26 7V9ZM14 7C12.3431 7 11 8.34315 11 10H13C13 9.44772 13.4477 9 14 9V7ZM19.5187 17.8766L22.5187 19.5236L23.4813 17.7705L20.4813 16.1234L19.5187 17.8766ZM22 18.6471V22.3529H24V18.6471H22ZM22.5187 21.4764L19.5187 23.1234L20.4813 24.8766L23.4813 23.2295L22.5187 21.4764ZM20.4813 23.1234L17.4813 21.4764L16.5187 23.2295L19.5187 24.8766L20.4813 23.1234ZM18 22.3529V18.6471H16V22.3529H18ZM17.4813 19.5236L20.4813 17.8766L19.5187 16.1234L16.5187 17.7705L17.4813 19.5236ZM8 21H12V19H8V21ZM8 16H12V14H8V16ZM8 26H12V24H8V26ZM28 21H32V19H28V21ZM28 16H32V14H28V16ZM28 26H32V24H28V26Z"/>
</svg>
