<svg width="40" height="40" viewBox="0 0 40 40" fill="none" xmlns="http://www.w3.org/2000/svg">
<path d="M5 9C4.44772 9 4 9.44772 4 10C4 10.5523 4.44772 11 5 11V9ZM8 11C8.55228 11 9 10.5523 9 10C9 9.44772 8.55228 9 8 9V11ZM14 9C13.4477 9 13 9.44772 13 10C13 10.5523 13.4477 11 14 11V9ZM35 11C35.5523 11 36 10.5523 36 10C36 9.44772 35.5523 9 35 9V11ZM5 19C4.44772 19 4 19.4477 4 20C4 20.5523 4.44772 21 5 21V19ZM8 21C8.55228 21 9 20.5523 9 20C9 19.4477 8.55228 19 8 19V21ZM14 19C13.4477 19 13 19.4477 13 20C13 20.5523 13.4477 21 14 21V19ZM35 21C35.5523 21 36 20.5523 36 20C36 19.4477 35.5523 19 35 19V21ZM5 29C4.44772 29 4 29.4477 4 30C4 30.5523 4.44772 31 5 31V29ZM8 31C8.55228 31 9 30.5523 9 30C9 29.4477 8.55228 29 8 29V31ZM14 29C13.4477 29 13 29.4477 13 30C13 30.5523 13.4477 31 14 31V29ZM35 31C35.5523 31 36 30.5523 36 30C36 29.4477 35.5523 29 35 29V31ZM5 11H8V9H5V11ZM14 11H35V9H14V11ZM5 21H8V19H5V21ZM14 21H35V19H14V21ZM5 31H8V29H5V31ZM14 31H35V29H14V31Z"/>
</svg>
