<svg width="40" height="40" viewBox="0 0 40 40" fill="none" xmlns="http://www.w3.org/2000/svg">
<path d="M30 16.3871C30 19.5423 28.3447 24.2672 26.1258 28.2629C25.0256 30.2439 23.8209 31.983 22.675 33.2114C22.1017 33.8259 21.5653 34.2886 21.0864 34.5916C20.5995 34.8997 20.24 35 20 35V37C20.76 37 21.4942 36.7003 22.1558 36.2818C22.8253 35.8581 23.492 35.2676 24.1375 34.5757C25.4291 33.1912 26.7244 31.3045 27.8742 29.2339C30.1553 25.1264 32 20.0448 32 16.3871H30ZM20 35C19.76 35 19.4005 34.8997 18.9136 34.5916C18.4347 34.2886 17.8983 33.8259 17.325 33.2114C16.1791 31.983 14.9744 30.2439 13.8742 28.2629C11.6553 24.2672 10 19.5423 10 16.3871H8C8 20.0448 9.84471 25.1264 12.1258 29.2339C13.2756 31.3045 14.5709 33.1912 15.8625 34.5757C16.508 35.2676 17.1747 35.8581 17.8442 36.2818C18.5058 36.7003 19.24 37 20 37V35ZM10 16.3871C10 9.9766 14.0911 5 20 5V3C12.7089 3 8 9.17178 8 16.3871H10ZM20 5C25.9089 5 30 9.9766 30 16.3871H32C32 9.17178 27.2911 3 20 3V5ZM22 15C22 16.1046 21.1046 17 20 17V19C22.2091 19 24 17.2091 24 15H22ZM20 17C18.8954 17 18 16.1046 18 15H16C16 17.2091 17.7909 19 20 19V17ZM18 15C18 13.8954 18.8954 13 20 13V11C17.7909 11 16 12.7909 16 15H18ZM20 13C21.1046 13 22 13.8954 22 15H24C24 12.7909 22.2091 11 20 11V13Z"/>
</svg>
