<svg width="40" height="40" viewBox="0 0 40 40" fill="none" xmlns="http://www.w3.org/2000/svg">
<path fill-rule="evenodd" clip-rule="evenodd" d="M20 5C14.0911 5 10 9.9766 10 16.3871C10 19.5423 11.6553 24.2672 13.8742 28.2629C14.9744 30.2439 16.1791 31.983 17.325 33.2114C17.8983 33.8259 18.4347 34.2886 18.9136 34.5916C19.4005 34.8997 19.76 35 20 35C20.24 35 20.5995 34.8997 21.0864 34.5916C21.5653 34.2886 22.1017 33.8259 22.675 33.2114C23.8209 31.983 25.0256 30.2439 26.1258 28.2629C28.3447 24.2672 30 19.5423 30 16.3871C30 9.9766 25.9089 5 20 5ZM8 16.3871C8 9.17178 12.7089 3 20 3C27.2911 3 32 9.17178 32 16.3871C32 20.0448 30.1553 25.1264 27.8742 29.2339C26.7244 31.3045 25.4291 33.1912 24.1375 34.5757C23.492 35.2676 22.8253 35.8581 22.1558 36.2818C21.4942 36.7003 20.76 37 20 37C19.24 37 18.5058 36.7003 17.8442 36.2818C17.1747 35.8581 16.508 35.2676 15.8625 34.5757C14.5709 33.1912 13.2756 31.3045 12.1258 29.2339C9.84471 25.1264 8 20.0448 8 16.3871ZM20 13C18.8954 13 18 13.8954 18 15C18 16.1046 18.8954 17 20 17C21.1046 17 22 16.1046 22 15C22 13.8954 21.1046 13 20 13ZM16 15C16 12.7909 17.7909 11 20 11C22.2091 11 24 12.7909 24 15C24 17.2091 22.2091 19 20 19C17.7909 19 16 17.2091 16 15Z" fill="#333333"/>
</svg>
