<svg width="40" height="40" viewBox="0 0 40 40" fill="none" xmlns="http://www.w3.org/2000/svg">
<path d="M25.6 17.4177C25.6 22.0786 21.8721 25.8354 17.3 25.8354V27.8354C23.0004 27.8354 27.6 23.1594 27.6 17.4177H25.6ZM17.3 25.8354C12.7279 25.8354 9 22.0786 9 17.4177H7C7 23.1594 11.5996 27.8354 17.3 27.8354V25.8354ZM9 17.4177C9 12.7568 12.7279 9 17.3 9V7C11.5996 7 7 11.6761 7 17.4177H9ZM17.3 9C21.8721 9 25.6 12.7568 25.6 17.4177H27.6C27.6 11.6761 23.0004 7 17.3 7V9ZM32.6976 31.2835L24.8976 23.6886L23.5024 25.1215L31.3024 32.7165L32.6976 31.2835Z"/>
</svg>
