<svg width="20" height="15" viewBox="0 0 20 15" fill="#40D685" xmlns="http://www.w3.org/2000/svg">
<path d="M1.70711 6.29289C1.31658 5.90237 0.683417 5.90237 0.292893 6.29289C-0.0976311 6.68342 -0.097631 7.31658 0.292893 7.70711L1.70711 6.29289ZM7 13L6.29289 13.7071L7 14.4142L7.70711 13.7071L7 13ZM19.7071 1.70711C20.0976 1.31658 20.0976 0.683417 19.7071 0.292893C19.3166 -0.0976311 18.6834 -0.0976311 18.2929 0.292893L19.7071 1.70711ZM0.292893 7.70711L6.29289 13.7071L7.70711 12.2929L1.70711 6.29289L0.292893 7.70711ZM7.70711 13.7071L13.7071 7.70711L12.2929 6.29289L6.29289 12.2929L7.70711 13.7071ZM13.7071 7.70711L19.7071 1.70711L18.2929 0.292893L12.2929 6.29289L13.7071 7.70711Z"/>
</svg>
