<svg width="40" height="40" viewBox="0 0 40 40" fill="none" xmlns="http://www.w3.org/2000/svg">
<path d="M20 22L19.4855 22.8575C19.8022 23.0475 20.1978 23.0475 20.5145 22.8575L20 22ZM15.5145 18.1425C15.0409 17.8584 14.4267 18.0119 14.1425 18.4855C13.8584 18.9591 14.0119 19.5733 14.4855 19.8575L15.5145 18.1425ZM25.5145 19.8575C25.9881 19.5733 26.1416 18.9591 25.8575 18.4855C25.5733 18.0119 24.9591 17.8584 24.4855 18.1425L25.5145 19.8575ZM20.5145 21.1425L15.5145 18.1425L14.4855 19.8575L19.4855 22.8575L20.5145 21.1425ZM24.4855 18.1425L19.4855 21.1425L20.5145 22.8575L25.5145 19.8575L24.4855 18.1425Z"/>
</svg>
