<svg width="34" height="15" viewBox="0 0 34 15" fill="none" xmlns="http://www.w3.org/2000/svg">
<path d="M0.186267 7.41876C-0.134742 7.86817 -0.0306507 8.49272 0.418762 8.81373C0.868174 9.13474 1.49272 9.03065 1.81373 8.58124L0.186267 7.41876ZM32.1863 8.58124C32.5073 9.03065 33.1318 9.13474 33.5812 8.81373C34.0307 8.49272 34.1347 7.86817 33.8137 7.41876L32.1863 8.58124ZM1 8C1.81373 8.58124 1.81346 8.58163 1.8132 8.58199C1.81314 8.58207 1.8129 8.58241 1.81278 8.58258C1.81253 8.58292 1.81236 8.58315 1.81227 8.58328C1.81208 8.58354 1.81219 8.58339 1.8126 8.58283C1.81342 8.5817 1.81544 8.57893 1.81866 8.57457C1.82511 8.56586 1.83636 8.5508 1.85244 8.52982C1.88462 8.48785 1.93611 8.42222 2.00712 8.3363C2.1492 8.1644 2.36914 7.91165 2.6687 7.60479C3.2682 6.99067 4.18383 6.16263 5.4297 5.33205C7.91532 3.67497 11.7253 2 17 2V0C11.2747 0 7.08468 1.82503 4.3203 3.66795C2.94117 4.58737 1.9193 5.50933 1.23755 6.20771C0.896487 6.5571 0.63986 6.85122 0.465534 7.06213C0.378348 7.16762 0.311668 7.25239 0.265232 7.31296C0.242011 7.34324 0.223843 7.36749 0.210695 7.38527C0.204121 7.39416 0.198801 7.40143 0.194732 7.40703C0.192697 7.40983 0.190974 7.41221 0.189563 7.41417C0.188858 7.41515 0.188231 7.41602 0.187681 7.41679C0.187407 7.41717 0.187053 7.41766 0.186916 7.41785C0.186581 7.41832 0.186267 7.41876 1 8ZM17 2C22.2747 2 26.0847 3.67497 28.5703 5.33205C29.8162 6.16263 30.7318 6.99067 31.3313 7.60479C31.6309 7.91165 31.8508 8.1644 31.9929 8.3363C32.0639 8.42222 32.1154 8.48785 32.1476 8.52982C32.1636 8.5508 32.1749 8.56586 32.1813 8.57457C32.1846 8.57893 32.1866 8.5817 32.1874 8.58283C32.1878 8.58339 32.1879 8.58354 32.1877 8.58328C32.1876 8.58315 32.1875 8.58292 32.1872 8.58258C32.1871 8.58241 32.1869 8.58207 32.1868 8.58199C32.1865 8.58163 32.1863 8.58124 33 8C33.8137 7.41876 33.8134 7.41832 33.8131 7.41785C33.8129 7.41766 33.8126 7.41717 33.8123 7.41679C33.8118 7.41602 33.8111 7.41515 33.8104 7.41417C33.809 7.41221 33.8073 7.40983 33.8053 7.40703C33.8012 7.40143 33.7959 7.39416 33.7893 7.38527C33.7762 7.36749 33.758 7.34324 33.7348 7.31296C33.6883 7.25239 33.6217 7.16762 33.5345 7.06213C33.3601 6.85122 33.1035 6.5571 32.7624 6.20771C32.0807 5.50933 31.0588 4.58737 29.6797 3.66795C26.9153 1.82503 22.7253 0 17 0V2ZM20 10C20 11.6569 18.6569 13 17 13V15C19.7614 15 22 12.7614 22 10H20ZM17 13C15.3431 13 14 11.6569 14 10H12C12 12.7614 14.2386 15 17 15V13ZM14 10C14 8.34315 15.3431 7 17 7V5C14.2386 5 12 7.23858 12 10H14ZM17 7C18.6569 7 20 8.34315 20 10H22C22 7.23858 19.7614 5 17 5V7Z"/>
</svg>