<svg width="124" height="40" viewBox="0 0 124 40" fill="none" xmlns="http://www.w3.org/2000/svg">
<circle cx="20" cy="20" r="20" transform="rotate(90 20 20)" fill="url(#paint0_linear)"/>
<path d="M12 15.2014C13.6746 12.6768 16.6316 11 20 11C23.3684 11 26.3254 12.6768 28 15.2014M28 24.7986C26.3254 27.3232 23.3684 29 20 29C16.6316 29 13.6746 27.3232 12 24.7986" stroke="white" stroke-width="2" stroke-linecap="round"/>
<path d="M8.5 13.0686C10.9073 9.42205 15.1579 7 20 7C24.8421 7 29.0927 9.42205 31.5 13.0686M31.5 26.9314C29.0927 30.578 24.8421 33 20 33C15.1579 33 10.9073 30.578 8.5 26.9314" stroke="#00B7F9" stroke-linecap="round"/>
<path d="M16 22.4302H17.5636C19.7193 22.4302 20.653 21.1968 20.653 19.6453C20.653 18.2257 19.8712 17 17.6623 17H16V22.4302ZM17.6471 17.8843C19.1576 17.8843 19.6966 18.6135 19.6966 19.6453C19.6966 20.7701 19.0969 21.5458 17.632 21.5458H16.9185V17.8843H17.6471Z" fill="white"/>
<path d="M23.6043 21.2821C23.6043 21.5691 23.2931 21.6777 22.9591 21.6777C22.443 21.6777 21.9496 21.4062 21.7295 21.0494L21.0463 21.5303C21.3272 22.0811 21.9951 22.5 22.8756 22.5C23.7485 22.5 24.5 22.1199 24.5 21.2743C24.5 19.8547 22.109 20.0487 22.109 19.4901C22.109 19.2109 22.3747 19.1255 22.6935 19.1255C23.1868 19.1255 23.6043 19.3117 23.8396 19.591L24.4317 19.0169C24.1736 18.6368 23.536 18.3032 22.8377 18.3032C21.8206 18.3032 21.2133 18.7609 21.2133 19.5056C21.2133 20.8865 23.6043 20.677 23.6043 21.2821Z" fill="white"/>
<path d="M58 23.4298C58.3451 23.8979 59.0927 24.2979 59.8568 24.2979C61.2042 24.2979 62.0504 23.3872 62.0504 21.9149C62.0504 20.6043 61.2945 19.6766 60.0622 19.6766C59.4542 19.6766 58.9284 19.8979 58.534 20.417V18H58V23.4298ZM59.9964 20.2043C60.8591 20.2043 61.4835 20.8681 61.4835 21.966C61.4835 23.0979 60.818 23.7702 59.9225 23.7702C59.4213 23.7702 58.8627 23.5574 58.534 23.1745V21.1745C58.7969 20.6553 59.3227 20.2043 59.9964 20.2043Z" fill="url(#paint1_linear)"/>
<path d="M62.9072 25.9404C63.0222 25.983 63.1455 26 63.2687 26C63.8767 26 64.2628 25.6851 64.8461 24.1957L66.5714 19.7872H65.9799L64.5914 23.4213L62.7675 19.7872H62.1267L64.3121 24.1191L64.1971 24.4085C63.8684 25.2426 63.622 25.4553 63.2605 25.4553C63.2112 25.4553 63.1044 25.4213 63.0551 25.4043L62.9072 25.9404Z" fill="url(#paint2_linear)"/>
<path fill-rule="evenodd" clip-rule="evenodd" d="M93.5046 17.4886C92.9479 17.0448 92.4751 16.8267 92.071 16.8267C91.8346 16.8267 91.5829 16.9046 91.3084 17.0526C91.0338 17.2083 90.8051 17.3874 90.622 17.5899V14.257C90.622 14.1791 90.5992 14.1168 90.5382 14.0701C90.4924 14.0234 90.4314 14 90.3552 14H89.7832C89.707 14 89.646 14.0234 89.6002 14.0701C89.5545 14.1168 89.5316 14.1791 89.5316 14.257V22.3712C89.5316 22.8073 89.8214 23.2511 90.3933 23.7028C90.9652 24.1467 91.4762 24.3725 91.9261 24.3725C92.3684 24.3725 92.8793 24.1467 93.4588 23.695C94.0461 23.2433 94.3358 22.7917 94.3358 22.3556V18.828C94.3358 18.3764 94.0612 17.9325 93.5046 17.4886ZM93.2377 18.9916V22.2076C93.2377 22.4568 93.0775 22.706 92.7649 22.963C92.4446 23.22 92.1701 23.3524 91.9184 23.3524C91.6668 23.3524 91.3922 23.22 91.0796 22.9552C90.7669 22.6904 90.6145 22.4413 90.6145 22.2076V18.976C90.6145 18.7424 90.7746 18.4932 91.1025 18.2362C91.4304 17.9792 91.7049 17.8468 91.9337 17.8468C92.1701 17.8468 92.4522 17.9792 92.7649 18.2362C93.0775 18.4932 93.2377 18.7502 93.2377 18.9916Z" fill="url(#paint3_linear)"/>
<path fill-rule="evenodd" clip-rule="evenodd" d="M74.6843 14.5217C75.1494 14.5217 75.7138 14.7943 76.3772 15.3316C77.033 15.8689 77.3685 16.3829 77.3685 16.8579V23.9987C77.3685 24.0688 77.3457 24.1311 77.2923 24.1778C77.2389 24.2323 77.1779 24.2557 77.1016 24.2557H76.5145C76.4458 24.2557 76.3848 24.2323 76.3391 24.1778C76.2857 24.1233 76.2628 24.061 76.2628 23.9987V20.7203H73.121V23.9987C73.121 24.0766 73.0981 24.1389 73.0448 24.1856C72.9914 24.2323 72.9304 24.2557 72.8693 24.2557H72.2669C72.1907 24.2557 72.1297 24.2323 72.0762 24.1778C72.0229 24.1233 72 24.061 72 23.9987V16.8579C72 16.3829 72.3279 15.8689 72.9913 15.3316C73.6472 14.7865 74.2115 14.5217 74.6843 14.5217ZM73.1134 19.7158H76.2323V17.0058C76.2323 16.7255 76.0416 16.414 75.6604 16.087C75.2791 15.7521 74.9512 15.5886 74.669 15.5886C74.4021 15.5886 74.0742 15.7521 73.6853 16.087C73.3117 16.414 73.1134 16.7255 73.1134 17.0058V19.7158Z" fill="url(#paint4_linear)"/>
<path d="M85.2383 16.8345C85.6577 16.8345 86.1458 17.0526 86.7025 17.4964C87.2592 17.9403 87.5337 18.3686 87.5337 18.7891V23.9987C87.5337 24.0766 87.5108 24.1389 87.4574 24.1856C87.404 24.2323 87.343 24.2557 87.282 24.2557H86.7101C86.5347 24.2557 86.4508 24.17 86.4508 23.9909V18.9526C86.4508 18.719 86.2983 18.4776 86.0009 18.2284C85.7035 17.9792 85.4442 17.8546 85.2307 17.8546C85.0324 17.8546 84.7808 17.9792 84.4757 18.2284C84.1784 18.4776 84.0258 18.719 84.0258 18.9526V23.9987C84.0258 24.1778 83.942 24.2635 83.7666 24.2635H83.1947C83.1184 24.2635 83.0574 24.2401 83.0116 24.1934C82.9506 24.1389 82.9278 24.0766 82.9278 23.9987V18.9526C82.9278 18.719 82.7752 18.4776 82.4778 18.2284C82.1804 17.9792 81.9287 17.8546 81.7229 17.8546C81.5246 17.8546 81.273 17.9792 80.9679 18.2284C80.6705 18.4776 80.518 18.719 80.518 18.9526V23.9987C80.518 24.0766 80.4951 24.1389 80.4494 24.1856C80.4036 24.2323 80.3426 24.2557 80.2663 24.2557H79.6944C79.519 24.2557 79.4351 24.17 79.4351 23.9909V18.7891C79.4351 18.3686 79.7097 17.9403 80.2663 17.4964C80.823 17.0526 81.3034 16.8345 81.7152 16.8345C81.9821 16.8345 82.2872 16.9435 82.6227 17.1616C82.9582 17.3796 83.248 17.6288 83.4768 17.9014C83.7056 17.6288 83.9953 17.3796 84.3385 17.1616C84.6817 16.9435 84.9867 16.8345 85.2383 16.8345Z" fill="url(#paint5_linear)"/>
<path d="M98.4613 16.8501C98.7206 16.8501 98.9646 16.889 99.1935 16.9669C99.3612 17.0058 99.4222 17.1227 99.3841 17.294L99.3155 17.73C99.285 17.8858 99.1782 17.9481 98.9875 17.9169C98.7969 17.878 98.6368 17.8546 98.4995 17.8546C98.3012 17.8546 98.0496 17.987 97.7445 18.2596C97.4471 18.5243 97.2947 18.7735 97.2947 18.9994V23.9909C97.2947 24.17 97.2107 24.2557 97.0354 24.2557H96.4634C96.3872 24.2557 96.3261 24.2323 96.2804 24.1856C96.2347 24.1389 96.2118 24.0766 96.2118 23.9987V18.8514C96.2118 18.4231 96.4863 17.9792 97.0277 17.5276C97.5691 17.0759 98.0496 16.8501 98.4613 16.8501Z" fill="url(#paint6_linear)"/>
<path fill-rule="evenodd" clip-rule="evenodd" d="M104.394 17.5042C104.051 17.2394 103.731 17.0526 103.433 16.9435V15.4017C103.433 15.3394 103.41 15.2849 103.365 15.2459C103.319 15.207 103.258 15.1836 103.182 15.1836H102.625C102.588 15.1836 102.555 15.1891 102.525 15.1991C102.493 15.2098 102.466 15.2258 102.442 15.2459C102.396 15.2849 102.373 15.3394 102.373 15.4017V16.9202C102.061 17.0214 101.718 17.2239 101.344 17.512C100.764 17.9636 100.475 18.4153 100.475 18.8592V22.3478C100.475 22.7995 100.764 23.2511 101.344 23.7028C101.718 23.9987 102.068 24.1934 102.381 24.2946V25.7819C102.381 25.8442 102.404 25.8987 102.45 25.9377C102.495 25.9766 102.556 26 102.633 26H103.189C103.266 26 103.327 25.9766 103.372 25.9377C103.39 25.9222 103.405 25.9043 103.416 25.8844C103.433 25.8542 103.441 25.8195 103.441 25.7819V24.2634C103.731 24.1544 104.043 23.9675 104.387 23.695C104.974 23.2355 105.263 22.7839 105.263 22.3478V18.867C105.263 18.4075 104.974 17.9559 104.394 17.5042ZM104.173 22.1999C104.173 22.449 104.013 22.706 103.7 22.963C103.388 23.22 103.105 23.3524 102.869 23.3524C102.617 23.3524 102.343 23.22 102.03 22.963C101.718 22.6982 101.565 22.449 101.565 22.1921V19.0071C101.565 18.7502 101.725 18.4932 102.038 18.2362C102.35 17.9792 102.633 17.8468 102.869 17.8468C103.105 17.8468 103.388 17.9792 103.7 18.2362C104.013 18.501 104.173 18.7502 104.173 19.0071V22.1999Z" fill="url(#paint7_linear)"/>
<path d="M108.68 19.817L110.327 20.4478C111.051 20.7437 111.417 21.1953 111.417 21.8105V22.5269C111.417 22.9007 111.143 23.2979 110.594 23.7262C110.045 24.1544 109.557 24.3725 109.137 24.3725C108.695 24.3725 108.047 24.1467 107.193 23.7028C107.002 23.5938 106.949 23.4458 107.033 23.2667L107.193 22.8851C107.269 22.706 107.414 22.6671 107.635 22.7683C108.398 23.1577 108.901 23.3524 109.137 23.3524C109.336 23.3524 109.587 23.2355 109.892 23.0019C110.19 22.7683 110.342 22.5581 110.342 22.3867V21.9585C110.342 21.7949 110.281 21.6548 110.167 21.5457C110.045 21.4367 109.877 21.3355 109.648 21.2343L108.07 20.6191C107.345 20.3387 106.979 19.9104 106.979 19.3498V18.719C106.979 18.3297 107.261 17.9169 107.833 17.4809C108.398 17.0448 108.878 16.8267 109.259 16.8267C109.686 16.8267 110.312 17.037 111.135 17.4575C111.204 17.4886 111.25 17.5354 111.28 17.6132C111.311 17.6833 111.303 17.7612 111.265 17.8391L111.12 18.2362C111.036 18.4231 110.891 18.462 110.693 18.353C109.93 18.0182 109.458 17.8546 109.252 17.8546C109.061 17.8546 108.809 17.9714 108.497 18.2128C108.184 18.4542 108.032 18.6645 108.032 18.8592V19.1785C108.032 19.4276 108.245 19.6457 108.68 19.817Z" fill="url(#paint8_linear)"/>
<path d="M117.503 16.9435H116.931C116.756 16.9435 116.672 17.0292 116.672 17.2083V22.1843C116.672 22.4413 116.511 22.706 116.199 22.963C115.886 23.22 115.612 23.3524 115.383 23.3524C115.146 23.3524 114.872 23.22 114.559 22.963C114.247 22.706 114.094 22.4491 114.094 22.1843V17.2083C114.094 17.1304 114.071 17.0681 114.003 17.0214C113.957 16.9747 113.896 16.9513 113.82 16.9513H113.248C113.171 16.9513 113.11 16.9747 113.065 17.0214C113.019 17.0681 112.996 17.1304 112.996 17.2083V22.3322C112.996 22.7917 113.278 23.2433 113.85 23.695C114.414 24.1389 114.925 24.3647 115.375 24.3647C115.81 24.3647 116.321 24.1467 116.893 23.695C117.465 23.2433 117.755 22.7917 117.755 22.3322V17.2005C117.755 17.1227 117.732 17.0603 117.686 17.0136C117.64 16.9669 117.579 16.9435 117.503 16.9435Z" fill="url(#paint9_linear)"/>
<path d="M121.262 19.817L122.91 20.4478C123.634 20.7437 124 21.1953 124 21.8105V22.5269C124 22.9007 123.725 23.2979 123.176 23.7262C122.627 24.1544 122.139 24.3725 121.72 24.3725C121.278 24.3725 120.629 24.1467 119.775 23.7028C119.585 23.5938 119.531 23.4458 119.615 23.2667L119.775 22.8851C119.852 22.706 119.997 22.6671 120.218 22.7683C120.98 23.1577 121.484 23.3524 121.72 23.3524C121.918 23.3524 122.17 23.2355 122.475 23.0019C122.772 22.7683 122.925 22.5581 122.925 22.3867V21.9585C122.925 21.7949 122.864 21.6548 122.749 21.5457C122.627 21.4367 122.46 21.3355 122.231 21.2343L120.652 20.6191C119.928 20.3387 119.562 19.9104 119.562 19.3498V18.719C119.562 18.3297 119.844 17.9169 120.416 17.4809C120.98 17.0448 121.461 16.8267 121.842 16.8267C122.269 16.8267 122.894 17.037 123.718 17.4575C123.786 17.4886 123.832 17.5354 123.863 17.6132C123.893 17.6833 123.886 17.7612 123.847 17.8391L123.703 18.2362C123.619 18.4231 123.474 18.462 123.276 18.353C122.513 18.0182 122.033 17.8546 121.834 17.8546C121.644 17.8546 121.392 17.9714 121.079 18.2128C120.767 18.4542 120.614 18.6645 120.614 18.8592V19.1785C120.614 19.4276 120.828 19.6457 121.262 19.817Z" fill="url(#paint10_linear)"/>
<defs>
<linearGradient id="paint0_linear" x1="0" y1="20" x2="40" y2="20" gradientUnits="userSpaceOnUse">
<stop stop-color="#00B7F9"/>
<stop offset="0.480663" stop-color="#0042BA"/>
<stop offset="1" stop-color="#5B1EC0"/>
</linearGradient>
<linearGradient id="paint1_linear" x1="58" y1="20" x2="124" y2="20" gradientUnits="userSpaceOnUse">
<stop stop-color="#122283"/>
<stop offset="1" stop-color="#4F299B"/>
</linearGradient>
<linearGradient id="paint2_linear" x1="58" y1="20" x2="124" y2="20" gradientUnits="userSpaceOnUse">
<stop stop-color="#122283"/>
<stop offset="1" stop-color="#4F299B"/>
</linearGradient>
<linearGradient id="paint3_linear" x1="58" y1="20" x2="124" y2="20" gradientUnits="userSpaceOnUse">
<stop stop-color="#122283"/>
<stop offset="1" stop-color="#4F299B"/>
</linearGradient>
<linearGradient id="paint4_linear" x1="58" y1="20" x2="124" y2="20" gradientUnits="userSpaceOnUse">
<stop stop-color="#122283"/>
<stop offset="1" stop-color="#4F299B"/>
</linearGradient>
<linearGradient id="paint5_linear" x1="58" y1="20" x2="124" y2="20" gradientUnits="userSpaceOnUse">
<stop stop-color="#122283"/>
<stop offset="1" stop-color="#4F299B"/>
</linearGradient>
<linearGradient id="paint6_linear" x1="58" y1="20" x2="124" y2="20" gradientUnits="userSpaceOnUse">
<stop stop-color="#122283"/>
<stop offset="1" stop-color="#4F299B"/>
</linearGradient>
<linearGradient id="paint7_linear" x1="58" y1="20" x2="124" y2="20" gradientUnits="userSpaceOnUse">
<stop stop-color="#122283"/>
<stop offset="1" stop-color="#4F299B"/>
</linearGradient>
<linearGradient id="paint8_linear" x1="58" y1="20" x2="124" y2="20" gradientUnits="userSpaceOnUse">
<stop stop-color="#122283"/>
<stop offset="1" stop-color="#4F299B"/>
</linearGradient>
<linearGradient id="paint9_linear" x1="58" y1="20" x2="124" y2="20" gradientUnits="userSpaceOnUse">
<stop stop-color="#122283"/>
<stop offset="1" stop-color="#4F299B"/>
</linearGradient>
<linearGradient id="paint10_linear" x1="58" y1="20" x2="124" y2="20" gradientUnits="userSpaceOnUse">
<stop stop-color="#122283"/>
<stop offset="1" stop-color="#4F299B"/>
</linearGradient>
</defs>
</svg>
