<svg width="80" height="80" viewBox="0 0 80 80" fill="none" xmlns="http://www.w3.org/2000/svg">
<circle cx="40" cy="40" r="40" transform="rotate(90 40 40)" fill="url(#paint0_linear)"/>
<path d="M24 30.4027C27.3493 25.3536 33.2632 22 40 22C46.7368 22 52.6507 25.3536 56 30.4027M56 49.5973C52.6507 54.6464 46.7368 58 40 58C33.2632 58 27.3493 54.6464 24 49.5973" stroke="white" stroke-width="4" stroke-linecap="round"/>
<path d="M17 26.1373C21.8146 18.8441 30.3159 14 40 14C49.6841 14 58.1854 18.8441 63 26.1373M63 53.8627C58.1854 61.1559 49.6841 66 40 66C30.3159 66 21.8146 61.1559 17 53.8627" stroke="#00B7F9" stroke-width="2" stroke-linecap="round"/>
<path d="M32 44.8604H35.1273C39.4387 44.8604 41.306 42.3935 41.306 39.2905C41.306 36.4513 39.7423 34 35.3246 34H32V44.8604ZM35.2943 35.7687C38.3153 35.7687 39.3932 37.2271 39.3932 39.2905C39.3932 41.5402 38.1939 43.0917 35.2639 43.0917H33.8369V35.7687H35.2943Z" fill="white"/>
<path d="M47.2086 42.5642C47.2086 43.1382 46.5862 43.3554 45.9183 43.3554C44.8859 43.3554 43.8992 42.8124 43.4589 42.0987L42.0926 43.0606C42.6543 44.1622 43.9903 45 45.7513 45C47.4971 45 49 44.2398 49 42.5487C49 39.7095 44.218 40.0973 44.218 38.9803C44.218 38.4217 44.7493 38.2511 45.3869 38.2511C46.3737 38.2511 47.2086 38.6234 47.6793 39.1819L48.8634 38.0339C48.3472 37.2736 47.072 36.6065 45.6754 36.6065C43.6411 36.6065 42.4266 37.5219 42.4266 39.0113C42.4266 41.7729 47.2086 41.354 47.2086 42.5642Z" fill="white"/>
<defs>
<linearGradient id="paint0_linear" x1="0" y1="40" x2="80" y2="40" gradientUnits="userSpaceOnUse">
<stop stop-color="#00B7F9"/>
<stop offset="0.480663" stop-color="#0042BA"/>
<stop offset="1" stop-color="#5B1EC0"/>
</linearGradient>
</defs>
</svg>
