<svg width="108" height="108" viewBox="0 0 108 108" fill="none" xmlns="http://www.w3.org/2000/svg">
<path opacity="0.5" fill-rule="evenodd" clip-rule="evenodd" d="M54 87C72.2254 87 87 72.2254 87 54C87 35.7746 72.2254 21 54 21C35.7746 21 21 35.7746 21 54C21 72.2254 35.7746 87 54 87ZM54 88C72.7777 88 88 72.7777 88 54C88 35.2223 72.7777 20 54 20C35.2223 20 20 35.2223 20 54C20 72.7777 35.2223 88 54 88Z" fill="#00B7F9"/>
<path opacity="0.25" fill-rule="evenodd" clip-rule="evenodd" d="M54 97C77.7482 97 97 77.7482 97 54C97 30.2518 77.7482 11 54 11C30.2518 11 11 30.2518 11 54C11 77.7482 30.2518 97 54 97ZM54 98C78.3005 98 98 78.3005 98 54C98 29.6995 78.3005 10 54 10C29.6995 10 10 29.6995 10 54C10 78.3005 29.6995 98 54 98Z" fill="#00B7F9"/>
<path opacity="0.1" fill-rule="evenodd" clip-rule="evenodd" d="M54 107C83.2711 107 107 83.2711 107 54C107 24.7289 83.2711 1 54 1C24.7289 1 1 24.7289 1 54C1 83.2711 24.7289 107 54 107ZM54 108C83.8234 108 108 83.8234 108 54C108 24.1766 83.8234 0 54 0C24.1766 0 0 24.1766 0 54C0 83.8234 24.1766 108 54 108Z" fill="#00B7F9"/>
<path d="M78 54C78 67.2548 67.2548 78 54 78C40.7452 78 30 67.2548 30 54C30 40.7452 40.7452 30 54 30C67.2548 30 78 40.7452 78 54Z" fill="#00B7F9"/>
<path fill-rule="evenodd" clip-rule="evenodd" d="M70 54C70 62.8366 62.8366 70 54 70C45.1634 70 38 62.8366 38 54C38 45.1634 45.1634 38 54 38C62.8366 38 70 45.1634 70 54ZM78 54C78 67.2548 67.2548 78 54 78C40.7452 78 30 67.2548 30 54C30 40.7452 40.7452 30 54 30C67.2548 30 78 40.7452 78 54ZM63.4284 54.0098C63.4284 53.9026 63.3997 53.8052 63.3327 53.7273C62.94 53.0455 60.0382 48.4286 53.9951 48.4286C47.9232 48.4286 45.031 53.0844 44.6575 53.7273C44.6 53.8052 44.5713 53.9026 44.5713 54C44.5713 54.1072 44.6 54.2046 44.6671 54.2825C45.0597 54.9546 47.9616 59.5714 53.9951 59.5714C60.0477 59.5714 62.94 54.9448 63.3327 54.2727C63.3997 54.2046 63.4284 54.1072 63.4284 54.0098ZM56.9831 58.237C56.9927 58.2322 57.0023 58.2249 57.0118 58.2176C57.0214 58.2102 57.031 58.2029 57.0406 58.1981C57.1459 58.1201 57.1651 57.974 57.0884 57.8669C57.0118 57.7598 56.8682 57.7403 56.7628 57.8182C56.2074 58.237 55.5753 58.5195 54.9049 58.6559C54.608 58.6851 54.3111 58.6948 53.9951 58.6948C53.6791 58.6948 53.3822 58.6753 53.0853 58.6559L53.0853 58.6559C51.2369 58.2857 49.8099 56.8247 49.4364 54.9546C49.5705 54.8572 49.6567 54.7111 49.6567 54.5357C49.6567 54.2533 49.4268 54.0195 49.1491 54.0195C48.8714 54.0195 48.6415 54.2533 48.6415 54.5357C48.6415 54.7598 48.7852 54.9448 48.9767 55.0227C49.2257 56.3474 49.9631 57.487 50.9975 58.2468C47.7892 57.2143 46.0078 54.75 45.5194 54C46.0078 53.25 47.8083 50.7565 51.0741 49.7435C51.0683 49.7464 51.0635 49.7494 51.0589 49.7523C51.0559 49.7542 51.053 49.7562 51.0501 49.7581L51.0501 49.7582C51.0429 49.763 51.0358 49.7679 51.0262 49.7727C50.9208 49.8507 50.8921 49.9968 50.9687 50.1039C51.0166 50.1624 51.0837 50.2013 51.1603 50.2013C51.2082 50.2013 51.256 50.1916 51.2944 50.1624C51.9073 49.7143 52.6256 49.4221 53.3726 49.3247C53.5737 49.315 53.7844 49.3052 53.9951 49.3052C54.1962 49.3052 54.3973 49.315 54.5888 49.3247H54.5984C56.533 49.5779 58.094 51.0487 58.5154 52.9578C58.4101 53.0552 58.3526 53.1818 58.3526 53.3377C58.3526 53.6201 58.5825 53.8539 58.8602 53.8539C59.1379 53.8539 59.3678 53.6201 59.3678 53.3377C59.3678 53.0844 59.1954 52.8799 58.9655 52.8312C58.6687 51.5455 57.9121 50.4546 56.8778 49.724C60.1627 50.7273 61.9823 53.2305 62.4707 53.9903C61.9919 54.75 60.2106 57.2143 56.9831 58.237ZM53.9951 49.8214C51.7253 49.8214 49.8674 51.7013 49.8674 54.0195C49.8674 56.3279 51.7157 58.2176 53.9951 58.2176C56.2744 58.2176 58.1228 56.3377 58.1228 54.0195C58.1228 51.7111 56.2744 49.8214 53.9951 49.8214ZM53.9951 57.75C51.9743 57.75 50.3271 56.0747 50.3271 54.0195C50.3271 51.9643 51.9743 50.289 53.9951 50.289C56.0158 50.289 57.6535 51.9643 57.6631 54.0195C57.6631 56.0747 56.0158 57.75 53.9951 57.75ZM50.2696 50.4448C50.3558 50.3474 50.509 50.3474 50.5952 50.4351C50.691 50.5227 50.691 50.6786 50.6048 50.7663C49.944 51.4773 49.5226 52.3539 49.3885 53.3182C49.3789 53.4351 49.2832 53.5227 49.1683 53.5227H49.1299C49.0054 53.5033 48.9193 53.3864 48.9288 53.25C49.0821 52.1981 49.5418 51.224 50.2696 50.4448ZM58.6112 54.565C58.6303 54.4383 58.7453 54.3409 58.8698 54.3604C58.9943 54.3799 59.09 54.4968 59.0709 54.6234C58.9464 55.7046 58.4963 56.7078 57.778 57.5163C57.7301 57.565 57.6631 57.5844 57.6056 57.5844C57.5481 57.5844 57.4907 57.565 57.4524 57.526C57.3566 57.4383 57.347 57.2922 57.4332 57.1948C58.094 56.4546 58.4963 55.5487 58.6112 54.565ZM54.0238 51.5163C54.7517 51.5163 55.3454 52.1201 55.3454 52.8604C55.3454 53.3279 55.106 53.737 54.7517 53.9805L55.1156 56.2403C55.1443 56.4156 55.0294 56.5617 54.8474 56.5617H53.2002C53.0278 56.5617 52.9033 56.4156 52.932 56.2403L53.296 53.9805C52.932 53.737 52.7022 53.3279 52.7022 52.8604C52.7022 52.1201 53.296 51.5163 54.0238 51.5163Z" fill="white"/>
</svg>
