<svg width="24" height="24" viewBox="0 0 24 24" fill="none" xmlns="http://www.w3.org/2000/svg">
<path d="M11.9998 13.3C11.2818 13.3 10.6998 12.718 10.6998 12L9.69981 12C9.69981 13.2703 10.7296 14.3 11.9998 14.3L11.9998 13.3ZM10.6998 12C10.6998 11.282 11.2818 10.7 11.9998 10.7L11.9998 9.70001C10.7296 9.70001 9.69981 10.7298 9.69981 12L10.6998 12ZM11.9998 10.7C12.7178 10.7 13.2998 11.282 13.2998 12L14.2998 12C14.2998 10.7298 13.2701 9.70001 11.9998 9.70001L11.9998 10.7ZM13.2998 12C13.2998 12.718 12.7178 13.3 11.9998 13.3L11.9998 14.3C13.2701 14.3 14.2998 13.2703 14.2998 12L13.2998 12ZM11.9998 20.9C13.2701 20.9 14.2998 19.8703 14.2998 18.6L13.2998 18.6C13.2998 19.318 12.7178 19.9 11.9998 19.9L11.9998 20.9ZM14.2998 18.6C14.2998 17.3298 13.2701 16.3 11.9998 16.3L11.9998 17.3C12.7178 17.3 13.2998 17.882 13.2998 18.6L14.2998 18.6ZM11.9998 16.3C10.7296 16.3 9.69981 17.3298 9.69981 18.6L10.6998 18.6C10.6998 17.882 11.2818 17.3 11.9998 17.3L11.9998 16.3ZM11.9998 6.70001C11.2818 6.70001 10.6998 6.11798 10.6998 5.40001L9.69981 5.40001C9.69981 6.67026 10.7296 7.70001 11.9998 7.70001L11.9998 6.70001ZM10.6998 5.40001C10.6998 4.68204 11.2818 4.10001 11.9998 4.10001L11.9998 3.10001C10.7296 3.10001 9.69981 4.12975 9.69981 5.40001L10.6998 5.40001ZM11.9998 4.10001C12.7178 4.10001 13.2998 4.68204 13.2998 5.40001L14.2998 5.40001C14.2998 4.12975 13.2701 3.10001 11.9998 3.10001L11.9998 4.10001ZM13.2998 5.40001C13.2998 6.11798 12.7178 6.70001 11.9998 6.70001L11.9998 7.70001C13.2701 7.70001 14.2998 6.67026 14.2998 5.40001L13.2998 5.40001Z" fill="#333333"/>
</svg>
