<svg width="40" height="40" viewBox="0 0 40 40" fill="none" xmlns="http://www.w3.org/2000/svg">
<path d="M27 8C27 9.10457 26.1046 10 25 10V12C27.2091 12 29 10.2091 29 8H27ZM25 10C23.8954 10 23 9.10457 23 8H21C21 10.2091 22.7909 12 25 12V10ZM23 8C23 6.89543 23.8954 6 25 6V4C22.7909 4 21 5.79086 21 8H23ZM25 6C26.1046 6 27 6.89543 27 8H29C29 5.79086 27.2091 4 25 4V6ZM26 25C26 26.1046 25.1046 27 24 27V29C26.2091 29 28 27.2091 28 25H26ZM24 27C22.8954 27 22 26.1046 22 25H20C20 27.2091 21.7909 29 24 29V27ZM22 25C22 23.8954 22.8954 23 24 23V21C21.7909 21 20 22.7909 20 25H22ZM24 23C25.1046 23 26 23.8954 26 25H28C28 22.7909 26.2091 21 24 21V23ZM19 17C19 18.1046 18.1046 19 17 19V21C19.2091 21 21 19.2091 21 17H19ZM17 19C15.8954 19 15 18.1046 15 17H13C13 19.2091 14.7909 21 17 21V19ZM15 17C15 15.8954 15.8954 15 17 15V13C14.7909 13 13 14.7909 13 17H15ZM17 15C18.1046 15 19 15.8954 19 17H21C21 14.7909 19.2091 13 17 13V15ZM18.2929 19.7071L21.2929 22.7071L22.7071 21.2929L19.7071 18.2929L18.2929 19.7071ZM27 26H32V24H27V26ZM16.7071 33.7071L22.7071 27.7071L21.2929 26.2929L15.2929 32.2929L16.7071 33.7071ZM14 16H9V18H14V16ZM19.7071 15.7071L23.7071 11.7071L22.2929 10.2929L18.2929 14.2929L19.7071 15.7071ZM16 34C16 34.5523 15.5523 35 15 35V37C16.6569 37 18 35.6569 18 34H16ZM15 35C14.4477 35 14 34.5523 14 34H12C12 35.6569 13.3431 37 15 37V35ZM14 34C14 33.4477 14.4477 33 15 33V31C13.3431 31 12 32.3431 12 34H14ZM15 33C15.5523 33 16 33.4477 16 34H18C18 32.3431 16.6569 31 15 31V33ZM35 25C35 25.5523 34.5523 26 34 26V28C35.6569 28 37 26.6569 37 25H35ZM34 26C33.4477 26 33 25.5523 33 25H31C31 26.6569 32.3431 28 34 28V26ZM33 25C33 24.4477 33.4477 24 34 24V22C32.3431 22 31 23.3431 31 25H33ZM34 24C34.5523 24 35 24.4477 35 25H37C37 23.3431 35.6569 22 34 22V24ZM8 17C8 17.5523 7.55228 18 7 18V20C8.65685 20 10 18.6569 10 17H8ZM7 18C6.44772 18 6 17.5523 6 17H4C4 18.6569 5.34315 20 7 20V18ZM6 17C6 16.4477 6.44772 16 7 16V14C5.34315 14 4 15.3431 4 17H6ZM7 16C7.55228 16 8 16.4477 8 17H10C10 15.3431 8.65685 14 7 14V16Z"/>
</svg>
