<svg width="40" height="40" viewBox="0 0 40 40" fill="none" xmlns="http://www.w3.org/2000/svg">
<path fill-rule="evenodd" clip-rule="evenodd" d="M18.3749 3.36694C17.9415 3.36694 17.5574 3.64618 17.4237 4.05848L16.28 7.58527C15.8745 7.73298 15.4891 7.91505 15.1711 8.0653L15.1658 8.0678L11.678 6.43107C11.2957 6.25166 10.8419 6.33176 10.5441 6.63121L7.24383 9.94995C6.94162 10.2539 6.86667 10.7165 7.05749 11.1003L8.7416 14.4874C8.55929 14.8667 8.40645 15.2554 8.2815 15.6259L4.69442 16.7771C4.28065 16.9099 4 17.2947 4 17.7292V22.358C4 22.7903 4.2777 23.1736 4.68842 23.3082L8.19333 24.4575C8.33964 24.8641 8.52009 25.2505 8.6695 25.5703L6.97063 28.987C6.77982 29.3707 6.85477 29.8334 7.15698 30.1373L10.4573 33.4561C10.7621 33.7626 11.2294 33.8385 11.6156 33.6444L14.9775 31.954C15.3537 32.1365 15.739 32.2895 16.1064 32.4147L17.25 35.9415C17.3837 36.3538 17.7678 36.633 18.2012 36.633H22.8043C23.2377 36.633 23.6218 36.3538 23.7555 35.9415L24.8992 32.4147C25.3007 32.2684 25.6823 32.0885 25.9985 31.9392L29.3899 33.6444C29.7761 33.8385 30.2434 33.7626 30.5482 33.4561L33.8485 30.1373C34.1507 29.8334 34.2257 29.3707 34.0349 28.987L32.1242 25.1442C32.0271 24.9489 31.8688 24.7908 31.6735 24.6938L25.2986 21.5283C25.4561 21.0474 25.5412 20.5337 25.5412 20.0001C25.5412 17.2893 23.3437 15.0918 20.633 15.0918C17.9222 15.0918 15.7247 17.2893 15.7247 20.0001C15.7247 22.7108 17.9222 24.9083 20.633 24.9083C22.0903 24.9083 23.3993 24.2732 24.2983 23.2646L30.483 26.3356L31.9248 29.2354L29.641 31.532L26.4669 29.9361C26.2028 29.8033 25.8935 29.7942 25.622 29.9112C25.3743 30.018 25.1629 30.1181 24.9696 30.2098C24.578 30.3953 24.2601 30.546 23.8632 30.6457C23.5293 30.7297 23.262 30.9796 23.1558 31.3071L22.0773 34.633H18.9282L17.8497 31.3071C17.7472 30.9909 17.4941 30.7463 17.1746 30.6545C16.6189 30.4948 16.0043 30.2604 15.486 29.9625C15.1947 29.7951 14.8387 29.7852 14.5386 29.9361L11.3645 31.532L9.08068 29.2354L10.6722 26.0347C10.8025 25.7726 10.8114 25.4666 10.6967 25.1974C10.591 24.9493 10.4916 24.7372 10.4005 24.5429C10.2157 24.1485 10.0651 23.8272 9.96557 23.4268C9.88254 23.0928 9.63366 22.8251 9.30669 22.7178L6 21.6335V18.4586L9.38754 17.3714C9.70611 17.2691 9.95244 17.0144 10.0439 16.6925C10.2029 16.1329 10.4364 15.514 10.733 14.9919C10.8974 14.7026 10.9072 14.3505 10.759 14.0526L9.16753 10.8518L11.4658 8.54074L14.7366 10.0757C14.9957 10.1972 15.2944 10.202 15.5572 10.0887C15.8049 9.98199 16.0163 9.88183 16.2096 9.79019L16.2096 9.79019C16.6012 9.60463 16.9191 9.45398 17.316 9.35419C17.6499 9.27024 17.9172 9.02038 18.0234 8.69283L19.1019 5.36694H22.256L23.4184 8.87368C23.5223 9.18707 23.7741 9.42899 24.0914 9.52016C24.6471 9.67982 25.2617 9.91425 25.7801 10.2121C26.0714 10.3795 26.4273 10.3894 26.7275 10.2385L29.9015 8.64259L32.1854 10.9392L30.5939 14.14C30.348 14.6345 30.5495 15.2347 31.0441 15.4806C31.5386 15.7265 32.1388 15.5249 32.3847 15.0304L34.2954 11.1876C34.4862 10.8039 34.4113 10.3412 34.1091 10.0373L30.8088 6.71855C30.504 6.41203 30.0367 6.33607 29.6505 6.53025L26.2886 8.22058C25.911 8.03746 25.5242 7.88398 25.1557 7.75853L23.9272 4.0523C23.7916 3.64315 23.409 3.36694 22.978 3.36694H18.3749ZM17.7247 20.0001C17.7247 18.3939 19.0268 17.0918 20.633 17.0918C22.2392 17.0918 23.5412 18.3939 23.5412 20.0001C23.5412 21.6062 22.2392 22.9083 20.633 22.9083C19.0268 22.9083 17.7247 21.6062 17.7247 20.0001Z" fill="#333333"/>
</svg>
